<?xml version="1.0" encoding="UTF-8" standalone="no"?>
<!-- Created with Inkscape (http://www.inkscape.org/) -->

<svg
   xmlns:dc="http://purl.org/dc/elements/1.1/"
   xmlns:cc="http://creativecommons.org/ns#"
   xmlns:rdf="http://www.w3.org/1999/02/22-rdf-syntax-ns#"
   xmlns:svg="http://www.w3.org/2000/svg"
   xmlns="http://www.w3.org/2000/svg"
   version="1.1"
   width="715.74799"
   height="326.6929"
   id="svg3944">
  <defs
     id="defs3946" />
  <metadata
     id="metadata3949">
    <rdf:RDF>
      <cc:Work
         rdf:about="">
        <dc:format>image/svg+xml</dc:format>
        <dc:type
           rdf:resource="http://purl.org/dc/dcmitype/StillImage" />
        <dc:title></dc:title>
      </cc:Work>
    </rdf:RDF>
  </metadata>
  <g
     transform="translate(-29.287353,-347.5954)"
     id="layer1">
    <g
       transform="matrix(5.4769369,0,0,5.4769369,-1127.2066,-2000.2453)"
       id="g3991">
      <path
         d="m 341.19402,457.36336 -2.63375,13.39875 -2.30875,0 -4.8775,-8.39125 -0.0412,0 -1.65,8.39125 -2.8825,0 2.61375,-13.39875 2.21875,0 4.955,8.545 0.0413,0 1.70375,-8.545 2.86125,0"
         id="path3573"
         style="fill:#000000;fill-opacity:1;fill-rule:nonzero;stroke:none" />
      <path
         d="m 313.71277,457.36336 -4.93625,5.5175 -2.98625,-5.5175 -2.26125,0 -2.6125,13.39875 2.8825,0 1.665,-8.47 0.0412,0 2.6075,4.7775 4.44,-4.92875 0.0425,0 -1.6825,8.62125 2.88375,0 2.63375,-13.39875 -2.7175,0"
         id="path3575"
         style="fill:#000000;fill-opacity:1;fill-rule:nonzero;stroke:none" />
      <path
         d="m 298.82152,457.36336 -5.52,5.925 1.165,-5.925 -2.90375,0 -2.61375,13.39875 2.8825,0 1.23625,-6.28625 4.385,6.28625 3.60875,0 -4.975,-7.0075 6.1775,-6.39125 -3.4425,0"
         id="path3577"
         style="fill:#000000;fill-opacity:1;fill-rule:nonzero;stroke:none" />
      <path
         d="m 298.63277,485.27961 0.74625,-3.7325 4.52125,-0.002 0.415,-2.07125 -4.52125,0 0.66375,-3.44375 5.55875,0 0.415,-2.07375 -8.4625,0 -2.61375,13.39875 9.12625,0 2.115,-2.075 -7.96375,0"
         id="path3579"
         style="fill:#000000;fill-opacity:1;fill-rule:nonzero;stroke:none" />
      <path
         d="m 286.62652,457.03211 c -0.77875,0 -1.53,0.0575 -2.24,0.24375 -3.54875,0.93125 -6.09625,4.0925 -6.0875,8.01125 0.007,2.775 1.82875,5.80625 5.6475,5.80625 2.8875,0 4.33875,-1.285 5.5,-1.99125 l -1.16125,-1.74125 c -0.73625,0.4825 -1.245,0.89875 -2.0325,1.18125 -0.49875,0.17875 -1.10875,0.32875 -1.96,0.32875 -1.66875,0 -3.0225,-1.42 -3.01,-3.6675 0.015,-2.82625 1.73125,-5.9725 4.8875,-5.9725 1.535,0 2.0325,0.58 2.57125,1.12 l 1.4525,-1.70125 c -0.83,-0.9125 -2.0825,-1.6175 -3.5675,-1.6175"
         id="path3581"
         style="fill:#000000;fill-opacity:1;fill-rule:nonzero;stroke:none" />
      <path
         d="m 286.10527,473.95586 -0.415,2.07375 3.76375,0 -2.20875,11.325 2.88375,0 2.22625,-11.325 3.54,0 2.115,-2.07375 -11.905,0"
         id="path3583"
         style="fill:#000000;fill-opacity:1;fill-rule:nonzero;stroke:none" />
      <path
         d="m 271.32027,468.68836 0.74625,-3.73375 4.52125,0 0.415,-2.07375 -4.52125,0 0.66375,-3.4425 5.5575,0 0.415,-2.075 -8.46125,0 -2.61375,13.39875 9.41625,0 2.115,-2.07375 -8.25375,0"
         id="path3585"
         style="fill:#000000;fill-opacity:1;fill-rule:nonzero;stroke:none" />
      <path
         d="m 280.73777,485.27961 2.215,-11.33 -2.87875,0 -2.6125,13.405 8.17125,0 2.115,-2.075 -7.01,0"
         id="path3587"
         style="fill:#000000;fill-opacity:1;fill-rule:nonzero;stroke:none" />
      <path
         d="m 275.86027,473.95586 -1.76375,9.0425 c -0.28875,1.4825 -1.5925,2.40625 -3.04875,2.40625 -1.4575,0 -2.34625,-1.12875 -2.095,-2.40625 l 1.78375,-9.0425 -2.8825,0 -1.70125,8.67 c -0.62625,3.1925 1.415,5.01875 4.43875,5.01875 3.765,0 5.81,-1.75625 6.45,-5.01875 l 1.70125,-8.67 -2.8825,0"
         id="path3589"
         style="fill:#000000;fill-opacity:1;fill-rule:nonzero;stroke:none" />
      <path
         d="m 249.24027,471.88211 c -0.82875,0 -1.63125,0.0163 -2.39375,0.20375 -3.97125,0.98 -6.865,4.445 -6.87625,8.71375 -0.01,3.69625 2.58625,6.88625 6.41875,6.88625 3.0775,0 4.605,-1.24375 5.68375,-2.0325 l -1.08125,-1.8175 c -1.01875,0.855 -1.905,1.60625 -4.01625,1.60625 -2.24625,0 -3.91875,-1.81 -3.91625,-4.53 0.002,-3.44125 1.97125,-6.90375 5.745,-6.90375 1.375,0 2.36,0.82625 3.07375,1.55375 l 1.505,-1.6775 c -0.77125,-0.75875 -2.38125,-2.0025 -4.1425,-2.0025"
         id="path3591"
         style="fill:#000000;fill-opacity:1;fill-rule:nonzero;stroke:none" />
      <path
         d="m 249.70152,435.83836 c -2.91625,-4.36125 -8.805,-6.52 -13.855,-6.52 -13.075,0 -24.0425,10.805 -24.0425,23.915 0,2.51125 0.465,4.94625 1.34875,7.15625 l -0.01,-0.0337 c -0.16,-0.55375 -0.31,-1.76 -0.30875,-2.20125 0,-2.96625 1.73625,-5.4325 4.21375,-6.65 0.20125,-0.47 0.43875,-0.94 0.71375,-1.42125 1.9675,-3.445 6.7075,-7.09625 12.6925,-7.0975 5.3025,-10e-4 10.37125,2.98125 16.1825,2.98125 0.33875,0 0.66375,-0.02 0.975,-0.0625 0.0287,-2.97 -1.205,-5.82125 -2.96,-8.16625 -1.78125,-2.38 -5.05,-4.10125 -7.89875,-4.36 0.465,-0.0288 0.92875,-0.0937 1.38125,-0.0987 5.9025,-0.055 10.6825,4.70375 10.6825,10.63125 0,0.61 -0.0362,1.18625 -0.1125,1.745 1.7,-0.57625 2.7775,-1.93875 2.85375,-4.0325 0.0487,-1.33 -0.515,-3.77875 -1.85625,-5.785"
         id="path3593"
         style="fill:#e22739;fill-opacity:1;fill-rule:nonzero;stroke:none" />
      <path
         d="m 244.39277,449.30586 c -5.54875,0.015 -11.11375,-3.29625 -17.5675,-3.305 -4.8975,-0.006 -6.5825,1.57125 -8.37375,4.21125 -0.1925,0.28375 -0.36125,0.59125 -0.50375,0.9175 0.8225,-0.285 1.705,-0.44 2.61875,-0.4425 5.54875,-0.015 11.115,3.29625 17.5675,3.305 4.89875,0.006 6.5825,-1.57125 8.37375,-4.21125 0.1925,-0.28375 0.36125,-0.59125 0.50375,-0.9175 -0.82125,0.285 -1.705,0.44 -2.61875,0.4425"
         id="path3595"
         style="fill:#e22739;fill-opacity:1;fill-rule:nonzero;stroke:none" />
      <path
         d="m 251.91277,439.81086 c -0.2025,-0.5175 -0.0962,-0.17375 -0.0962,-0.17375 0,0 0.31,1.76 0.31,2.20125 -10e-4,2.96625 -1.7375,5.4325 -4.21375,6.65 -0.2025,0.47 -0.43875,0.94 -0.715,1.42125 -1.9675,3.445 -6.7075,7.09625 -12.69125,7.0975 -5.3025,10e-4 -10.3725,-2.98125 -16.18375,-2.98125 -0.33875,0 -0.66375,0.02 -0.975,0.0612 -0.0288,2.97125 1.205,5.82125 2.96,8.1675 1.78125,2.38 5.05,4.10125 7.89875,4.36 -0.465,0.0275 -0.92875,0.0937 -1.38125,0.0987 -5.9025,0.0537 -10.6825,-4.70375 -10.6825,-10.63125 0,-0.61 0.0375,-1.1875 0.11375,-1.74375 -1.70125,0.575 -2.77875,1.9375 -2.855,4.03125 -0.0475,1.33 0.50625,3.785 1.85625,5.785 2.96625,4.395 8.8625,6.6175 13.985,6.6175 13.10875,0 24.06,-10.2625 24.04125,-23.53625 -0.004,-2.60375 -0.4675,-5.13375 -1.37125,-7.425"
         id="path3597"
         style="fill:#e22739;fill-opacity:1;fill-rule:nonzero;stroke:none" />
      <path
         d="m 323.58527,457.36336 -1.8225,0 -7.96625,13.39875 3.11,0 1.70125,-3.1525 4.4975,0 0.64625,3.1525 3.11125,0 -3.2775,-13.39875 z m -3.9275,8.1725 2.1025,-3.9825 0.0825,0 0.8225,3.9825 -3.0075,0"
         id="path3599"
         style="fill:#000000;fill-opacity:1;fill-rule:nonzero;stroke:none" />
      <path
         d="m 313.59652,481.24586 c 1.38,-0.155 3.42625,-0.94375 3.91,-3.47375 0.4275,-2.2375 -1.27,-3.81625 -4.43875,-3.81625 l -4.355,0 -2.61375,13.39875 2.8825,0 1.19,-6.055 0.0838,0 4.14,6.055 3.73375,0 -4.5325,-6.10875 z m -3.07375,-1.73125 0.685,-3.485 1.05125,0 c 2.01,0 2.41125,0.7825 2.21875,1.7425 -0.2425,1.22 -0.99625,1.7425 -2.675,1.7425 l -1.28,0"
         id="path3601"
         style="fill:#000000;fill-opacity:1;fill-rule:nonzero;stroke:none" />
      <path
         d="m 264.96777,462.63336 0.005,-0.0437 c 0.705,-0.33125 2.42875,-0.78875 2.82125,-2.9025 0.52875,-2.84875 -1.72125,-4.065 -5.31,-4.065 l -4.52125,0 -2.98625,15.14 5.475,0 c 4.66,0 6.84375,-1.5275 7.3425,-4.02375 0.44125,-2.20875 -1.28625,-3.81625 -2.82625,-4.105 z m -4.5375,-4.9375 1.34875,0 c 2.1525,0 3.2825,0.50625 2.98625,1.99125 -0.24125,1.215 -1.075,1.99 -3.4425,1.99 l -1.68,0 0.7875,-3.98125 z m 4.41875,8.545 c -0.415,2.075 -2.2775,2.4475 -4.85375,2.4475 l -1.72125,0 0.95375,-4.93625 1.72125,0 c 2.255,0 4.325,0.36 3.9,2.48875"
         id="path3603"
         style="fill:#000000;fill-opacity:1;fill-rule:nonzero;stroke:none" />
      <path
         d="m 260.10777,473.66586 c -0.8475,0 -1.64875,0.0825 -2.39375,0.3125 -3.31125,1.02375 -5.48125,4.19375 -5.48125,7.9 0,2.7675 1.75875,5.76625 5.3525,5.76625 0.745,0 1.45375,-0.0537 2.12,-0.23375 3.46375,-0.9325 5.755,-4.1725 5.755,-7.98 0,-2.76625 -1.75875,-5.765 -5.3525,-5.765 z m -1.15,11.7275 c -0.33625,0.075 -0.68625,0.07 -1.04625,0.07 -1.405,0 -2.8575,-1.5025 -2.8575,-3.7925 0,-2.19 1.16875,-4.9675 3.40625,-5.67 0.42625,-0.13375 0.87,-0.15375 1.32125,-0.15375 1.39625,0 2.8575,1.485 2.8575,3.75 0,2.31125 -1.22125,5.24125 -3.68125,5.79625"
         id="path3605"
         style="fill:#000000;fill-opacity:1;fill-rule:nonzero;stroke:none" />
    </g>
  </g>
</svg>
